<?xml version="1.0" encoding="utf-8" standalone="no"?>
<!DOCTYPE svg PUBLIC "-//W3C//DTD SVG 1.1//EN"
  "http://www.w3.org/Graphics/SVG/1.1/DTD/svg11.dtd">
<!-- Created with matplotlib (https://matplotlib.org/) -->
<svg height="432pt" version="1.1" viewBox="0 0 432 432" width="432pt" xmlns="http://www.w3.org/2000/svg" xmlns:xlink="http://www.w3.org/1999/xlink">
 <metadata>
  <rdf:RDF xmlns:cc="http://creativecommons.org/ns#" xmlns:dc="http://purl.org/dc/elements/1.1/" xmlns:rdf="http://www.w3.org/1999/02/22-rdf-syntax-ns#">
   <cc:Work>
    <dc:type rdf:resource="http://purl.org/dc/dcmitype/StillImage"/>
    <dc:date>2021-01-21T21:57:38.327546</dc:date>
    <dc:format>image/svg+xml</dc:format>
    <dc:creator>
     <cc:Agent>
      <dc:title>Matplotlib v3.3.2, https://matplotlib.org/</dc:title>
     </cc:Agent>
    </dc:creator>
   </cc:Work>
  </rdf:RDF>
 </metadata>
 <defs>
  <style type="text/css">*{stroke-linecap:butt;stroke-linejoin:round;}</style>
 </defs>
 <g id="figure_1">
  <g id="patch_1">
   <path d="M 0 432 
L 432 432 
L 432 0 
L 0 0 
z
" style="fill:none;"/>
  </g>
  <g id="axes_1">
   <g id="patch_2">
    <path d="M 48.70625 390.2 
L 357.343929 390.2 
L 357.343929 75.84 
L 48.70625 75.84 
z
" style="fill:#ffffff;"/>
   </g>
   <g id="PathCollection_1">
    <defs>
     <path d="M 0 3 
C 0.795609 3 1.55874 2.683901 2.12132 2.12132 
C 2.683901 1.55874 3 0.795609 3 0 
C 3 -0.795609 2.683901 -1.55874 2.12132 -2.12132 
C 1.55874 -2.683901 0.795609 -3 0 -3 
C -0.795609 -3 -1.55874 -2.683901 -2.12132 -2.12132 
C -2.683901 -1.55874 -3 -0.795609 -3 0 
C -3 0.795609 -2.683901 1.55874 -2.12132 2.12132 
C -1.55874 2.683901 -0.795609 3 0 3 
z
" id="m5a6e9e208d" style="stroke:#1f77b4;stroke-opacity:0.8;"/>
    </defs>
    <g clip-path="url(#p6c18e29543)">
     <use style="fill:#1f77b4;fill-opacity:0.8;stroke:#1f77b4;stroke-opacity:0.8;" x="254.464702" xlink:href="#m5a6e9e208d" y="123.695525"/>
     <use style="fill:#1f77b4;fill-opacity:0.8;stroke:#1f77b4;stroke-opacity:0.8;" x="203.025089" xlink:href="#m5a6e9e208d" y="116.689543"/>
     <use style="fill:#1f77b4;fill-opacity:0.8;stroke:#1f77b4;stroke-opacity:0.8;" x="280.184509" xlink:href="#m5a6e9e208d" y="144.713474"/>
     <use style="fill:#1f77b4;fill-opacity:0.8;stroke:#1f77b4;stroke-opacity:0.8;" x="228.744896" xlink:href="#m5a6e9e208d" y="123.695525"/>
     <use style="fill:#1f77b4;fill-opacity:0.8;stroke:#1f77b4;stroke-opacity:0.8;" x="254.464702" xlink:href="#m5a6e9e208d" y="116.689543"/>
     <use style="fill:#1f77b4;fill-opacity:0.8;stroke:#1f77b4;stroke-opacity:0.8;" x="151.585476" xlink:href="#m5a6e9e208d" y="151.719457"/>
     <use style="fill:#1f77b4;fill-opacity:0.8;stroke:#1f77b4;stroke-opacity:0.8;" x="254.464702" xlink:href="#m5a6e9e208d" y="102.677577"/>
     <use style="fill:#1f77b4;fill-opacity:0.8;stroke:#1f77b4;stroke-opacity:0.8;" x="228.744896" xlink:href="#m5a6e9e208d" y="130.701508"/>
     <use style="fill:#1f77b4;fill-opacity:0.8;stroke:#1f77b4;stroke-opacity:0.8;" x="151.585476" xlink:href="#m5a6e9e208d" y="123.695525"/>
     <use style="fill:#1f77b4;fill-opacity:0.8;stroke:#1f77b4;stroke-opacity:0.8;" x="203.025089" xlink:href="#m5a6e9e208d" y="158.72544"/>
     <use style="fill:#1f77b4;fill-opacity:0.8;stroke:#1f77b4;stroke-opacity:0.8;" x="280.184509" xlink:href="#m5a6e9e208d" y="144.713474"/>
     <use style="fill:#1f77b4;fill-opacity:0.8;stroke:#1f77b4;stroke-opacity:0.8;" x="228.744896" xlink:href="#m5a6e9e208d" y="144.713474"/>
     <use style="fill:#1f77b4;fill-opacity:0.8;stroke:#1f77b4;stroke-opacity:0.8;" x="177.305283" xlink:href="#m5a6e9e208d" y="193.755354"/>
     <use style="fill:#1f77b4;fill-opacity:0.8;stroke:#1f77b4;stroke-opacity:0.8;" x="100.145863" xlink:href="#m5a6e9e208d" y="172.737406"/>
     <use style="fill:#1f77b4;fill-opacity:0.8;stroke:#1f77b4;stroke-opacity:0.8;" x="125.86567" xlink:href="#m5a6e9e208d" y="137.707491"/>
     <use style="fill:#1f77b4;fill-opacity:0.8;stroke:#1f77b4;stroke-opacity:0.8;" x="125.86567" xlink:href="#m5a6e9e208d" y="151.719457"/>
     <use style="fill:#1f77b4;fill-opacity:0.8;stroke:#1f77b4;stroke-opacity:0.8;" x="177.305283" xlink:href="#m5a6e9e208d" y="116.689543"/>
     <use style="fill:#1f77b4;fill-opacity:0.8;stroke:#1f77b4;stroke-opacity:0.8;" x="177.305283" xlink:href="#m5a6e9e208d" y="116.689543"/>
     <use style="fill:#1f77b4;fill-opacity:0.8;stroke:#1f77b4;stroke-opacity:0.8;" x="151.585476" xlink:href="#m5a6e9e208d" y="193.755354"/>
     <use style="fill:#1f77b4;fill-opacity:0.8;stroke:#1f77b4;stroke-opacity:0.8;" x="228.744896" xlink:href="#m5a6e9e208d" y="137.707491"/>
     <use style="fill:#1f77b4;fill-opacity:0.8;stroke:#1f77b4;stroke-opacity:0.8;" x="228.744896" xlink:href="#m5a6e9e208d" y="102.677577"/>
     <use style="fill:#1f77b4;fill-opacity:0.8;stroke:#1f77b4;stroke-opacity:0.8;" x="177.305283" xlink:href="#m5a6e9e208d" y="123.695525"/>
     <use style="fill:#1f77b4;fill-opacity:0.8;stroke:#1f77b4;stroke-opacity:0.8;" x="305.904315" xlink:href="#m5a6e9e208d" y="151.719457"/>
     <use style="fill:#1f77b4;fill-opacity:0.8;stroke:#1f77b4;stroke-opacity:0.8;" x="228.744896" xlink:href="#m5a6e9e208d" y="123.695525"/>
     <use style="fill:#1f77b4;fill-opacity:0.8;stroke:#1f77b4;stroke-opacity:0.8;" x="151.585476" xlink:href="#m5a6e9e208d" y="151.719457"/>
     <use style="fill:#1f77b4;fill-opacity:0.8;stroke:#1f77b4;stroke-opacity:0.8;" x="125.86567" xlink:href="#m5a6e9e208d" y="158.72544"/>
     <use style="fill:#1f77b4;fill-opacity:0.8;stroke:#1f77b4;stroke-opacity:0.8;" x="125.86567" xlink:href="#m5a6e9e208d" y="172.737406"/>
     <use style="fill:#1f77b4;fill-opacity:0.8;stroke:#1f77b4;stroke-opacity:0.8;" x="254.464702" xlink:href="#m5a6e9e208d" y="144.713474"/>
     <use style="fill:#1f77b4;fill-opacity:0.8;stroke:#1f77b4;stroke-opacity:0.8;" x="203.025089" xlink:href="#m5a6e9e208d" y="109.68356"/>
     <use style="fill:#1f77b4;fill-opacity:0.8;stroke:#1f77b4;stroke-opacity:0.8;" x="151.585476" xlink:href="#m5a6e9e208d" y="151.719457"/>
     <use style="fill:#1f77b4;fill-opacity:0.8;stroke:#1f77b4;stroke-opacity:0.8;" x="177.305283" xlink:href="#m5a6e9e208d" y="158.72544"/>
     <use style="fill:#1f77b4;fill-opacity:0.8;stroke:#1f77b4;stroke-opacity:0.8;" x="100.145863" xlink:href="#m5a6e9e208d" y="151.719457"/>
     <use style="fill:#1f77b4;fill-opacity:0.8;stroke:#1f77b4;stroke-opacity:0.8;" x="177.305283" xlink:href="#m5a6e9e208d" y="179.743388"/>
     <use style="fill:#1f77b4;fill-opacity:0.8;stroke:#1f77b4;stroke-opacity:0.8;" x="228.744896" xlink:href="#m5a6e9e208d" y="102.677577"/>
     <use style="fill:#1f77b4;fill-opacity:0.8;stroke:#1f77b4;stroke-opacity:0.8;" x="203.025089" xlink:href="#m5a6e9e208d" y="137.707491"/>
     <use style="fill:#1f77b4;fill-opacity:0.8;stroke:#1f77b4;stroke-opacity:0.8;" x="125.86567" xlink:href="#m5a6e9e208d" y="179.743388"/>
     <use style="fill:#1f77b4;fill-opacity:0.8;stroke:#1f77b4;stroke-opacity:0.8;" x="125.86567" xlink:href="#m5a6e9e208d" y="151.719457"/>
     <use style="fill:#1f77b4;fill-opacity:0.8;stroke:#1f77b4;stroke-opacity:0.8;" x="254.464702" xlink:href="#m5a6e9e208d" y="123.695525"/>
     <use style="fill:#1f77b4;fill-opacity:0.8;stroke:#1f77b4;stroke-opacity:0.8;" x="254.464702" xlink:href="#m5a6e9e208d" y="123.695525"/>
     <use style="fill:#1f77b4;fill-opacity:0.8;stroke:#1f77b4;stroke-opacity:0.8;" x="177.305283" xlink:href="#m5a6e9e208d" y="158.72544"/>
     <use style="fill:#1f77b4;fill-opacity:0.8;stroke:#1f77b4;stroke-opacity:0.8;" x="125.86567" xlink:href="#m5a6e9e208d" y="186.749371"/>
     <use style="fill:#1f77b4;fill-opacity:0.8;stroke:#1f77b4;stroke-opacity:0.8;" x="254.464702" xlink:href="#m5a6e9e208d" y="144.713474"/>
     <use style="fill:#1f77b4;fill-opacity:0.8;stroke:#1f77b4;stroke-opacity:0.8;" x="203.025089" xlink:href="#m5a6e9e208d" y="137.707491"/>
     <use style="fill:#1f77b4;fill-opacity:0.8;stroke:#1f77b4;stroke-opacity:0.8;" x="125.86567" xlink:href="#m5a6e9e208d" y="172.737406"/>
     <use style="fill:#1f77b4;fill-opacity:0.8;stroke:#1f77b4;stroke-opacity:0.8;" x="151.585476" xlink:href="#m5a6e9e208d" y="165.731423"/>
     <use style="fill:#1f77b4;fill-opacity:0.8;stroke:#1f77b4;stroke-opacity:0.8;" x="100.145863" xlink:href="#m5a6e9e208d" y="179.743388"/>
     <use style="fill:#1f77b4;fill-opacity:0.8;stroke:#1f77b4;stroke-opacity:0.8;" x="151.585476" xlink:href="#m5a6e9e208d" y="193.755354"/>
     <use style="fill:#1f77b4;fill-opacity:0.8;stroke:#1f77b4;stroke-opacity:0.8;" x="100.145863" xlink:href="#m5a6e9e208d" y="207.76732"/>
     <use style="fill:#1f77b4;fill-opacity:0.8;stroke:#1f77b4;stroke-opacity:0.8;" x="151.585476" xlink:href="#m5a6e9e208d" y="95.671594"/>
     <use style="fill:#1f77b4;fill-opacity:0.8;stroke:#1f77b4;stroke-opacity:0.8;" x="74.426057" xlink:href="#m5a6e9e208d" y="193.755354"/>
     <use style="fill:#1f77b4;fill-opacity:0.8;stroke:#1f77b4;stroke-opacity:0.8;" x="100.145863" xlink:href="#m5a6e9e208d" y="151.719457"/>
     <use style="fill:#1f77b4;fill-opacity:0.8;stroke:#1f77b4;stroke-opacity:0.8;" x="125.86567" xlink:href="#m5a6e9e208d" y="193.755354"/>
     <use style="fill:#1f77b4;fill-opacity:0.8;stroke:#1f77b4;stroke-opacity:0.8;" x="100.145863" xlink:href="#m5a6e9e208d" y="165.731423"/>
     <use style="fill:#1f77b4;fill-opacity:0.8;stroke:#1f77b4;stroke-opacity:0.8;" x="151.585476" xlink:href="#m5a6e9e208d" y="130.701508"/>
     <use style="fill:#1f77b4;fill-opacity:0.8;stroke:#1f77b4;stroke-opacity:0.8;" x="151.585476" xlink:href="#m5a6e9e208d" y="144.713474"/>
     <use style="fill:#1f77b4;fill-opacity:0.8;stroke:#1f77b4;stroke-opacity:0.8;" x="254.464702" xlink:href="#m5a6e9e208d" y="158.72544"/>
     <use style="fill:#1f77b4;fill-opacity:0.8;stroke:#1f77b4;stroke-opacity:0.8;" x="203.025089" xlink:href="#m5a6e9e208d" y="109.68356"/>
     <use style="fill:#1f77b4;fill-opacity:0.8;stroke:#1f77b4;stroke-opacity:0.8;" x="74.426057" xlink:href="#m5a6e9e208d" y="179.743388"/>
     <use style="fill:#1f77b4;fill-opacity:0.8;stroke:#1f77b4;stroke-opacity:0.8;" x="254.464702" xlink:href="#m5a6e9e208d" y="235.791252"/>
     <use style="fill:#1f77b4;fill-opacity:0.8;stroke:#1f77b4;stroke-opacity:0.8;" x="228.744896" xlink:href="#m5a6e9e208d" y="137.707491"/>
     <use style="fill:#1f77b4;fill-opacity:0.8;stroke:#1f77b4;stroke-opacity:0.8;" x="151.585476" xlink:href="#m5a6e9e208d" y="172.737406"/>
     <use style="fill:#1f77b4;fill-opacity:0.8;stroke:#1f77b4;stroke-opacity:0.8;" x="357.343929" xlink:href="#m5a6e9e208d" y="95.671594"/>
     <use style="fill:#1f77b4;fill-opacity:0.8;stroke:#1f77b4;stroke-opacity:0.8;" x="254.464702" xlink:href="#m5a6e9e208d" y="137.707491"/>
     <use style="fill:#1f77b4;fill-opacity:0.8;stroke:#1f77b4;stroke-opacity:0.8;" x="254.464702" xlink:href="#m5a6e9e208d" y="95.671594"/>
     <use style="fill:#1f77b4;fill-opacity:0.8;stroke:#1f77b4;stroke-opacity:0.8;" x="74.426057" xlink:href="#m5a6e9e208d" y="109.68356"/>
     <use style="fill:#1f77b4;fill-opacity:0.8;stroke:#1f77b4;stroke-opacity:0.8;" x="151.585476" xlink:href="#m5a6e9e208d" y="200.761337"/>
     <use style="fill:#1f77b4;fill-opacity:0.8;stroke:#1f77b4;stroke-opacity:0.8;" x="125.86567" xlink:href="#m5a6e9e208d" y="137.707491"/>
     <use style="fill:#1f77b4;fill-opacity:0.8;stroke:#1f77b4;stroke-opacity:0.8;" x="100.145863" xlink:href="#m5a6e9e208d" y="172.737406"/>
     <use style="fill:#1f77b4;fill-opacity:0.8;stroke:#1f77b4;stroke-opacity:0.8;" x="100.145863" xlink:href="#m5a6e9e208d" y="130.701508"/>
     <use style="fill:#1f77b4;fill-opacity:0.8;stroke:#1f77b4;stroke-opacity:0.8;" x="177.305283" xlink:href="#m5a6e9e208d" y="179.743388"/>
     <use style="fill:#1f77b4;fill-opacity:0.8;stroke:#1f77b4;stroke-opacity:0.8;" x="228.744896" xlink:href="#m5a6e9e208d" y="193.755354"/>
     <use style="fill:#1f77b4;fill-opacity:0.8;stroke:#1f77b4;stroke-opacity:0.8;" x="74.426057" xlink:href="#m5a6e9e208d" y="172.737406"/>
     <use style="fill:#1f77b4;fill-opacity:0.8;stroke:#1f77b4;stroke-opacity:0.8;" x="100.145863" xlink:href="#m5a6e9e208d" y="172.737406"/>
     <use style="fill:#1f77b4;fill-opacity:0.8;stroke:#1f77b4;stroke-opacity:0.8;" x="100.145863" xlink:href="#m5a6e9e208d" y="172.737406"/>
     <use style="fill:#1f77b4;fill-opacity:0.8;stroke:#1f77b4;stroke-opacity:0.8;" x="100.145863" xlink:href="#m5a6e9e208d" y="144.713474"/>
     <use style="fill:#1f77b4;fill-opacity:0.8;stroke:#1f77b4;stroke-opacity:0.8;" x="151.585476" xlink:href="#m5a6e9e208d" y="137.707491"/>
     <use style="fill:#1f77b4;fill-opacity:0.8;stroke:#1f77b4;stroke-opacity:0.8;" x="125.86567" xlink:href="#m5a6e9e208d" y="179.743388"/>
     <use style="fill:#1f77b4;fill-opacity:0.8;stroke:#1f77b4;stroke-opacity:0.8;" x="151.585476" xlink:href="#m5a6e9e208d" y="144.713474"/>
     <use style="fill:#1f77b4;fill-opacity:0.8;stroke:#1f77b4;stroke-opacity:0.8;" x="100.145863" xlink:href="#m5a6e9e208d" y="235.791252"/>
     <use style="fill:#1f77b4;fill-opacity:0.8;stroke:#1f77b4;stroke-opacity:0.8;" x="177.305283" xlink:href="#m5a6e9e208d" y="130.701508"/>
     <use style="fill:#1f77b4;fill-opacity:0.8;stroke:#1f77b4;stroke-opacity:0.8;" x="100.145863" xlink:href="#m5a6e9e208d" y="165.731423"/>
     <use style="fill:#1f77b4;fill-opacity:0.8;stroke:#1f77b4;stroke-opacity:0.8;" x="100.145863" xlink:href="#m5a6e9e208d" y="165.731423"/>
     <use style="fill:#1f77b4;fill-opacity:0.8;stroke:#1f77b4;stroke-opacity:0.8;" x="74.426057" xlink:href="#m5a6e9e208d" y="151.719457"/>
     <use style="fill:#1f77b4;fill-opacity:0.8;stroke:#1f77b4;stroke-opacity:0.8;" x="331.624122" xlink:href="#m5a6e9e208d" y="95.671594"/>
     <use style="fill:#1f77b4;fill-opacity:0.8;stroke:#1f77b4;stroke-opacity:0.8;" x="74.426057" xlink:href="#m5a6e9e208d" y="214.773303"/>
     <use style="fill:#1f77b4;fill-opacity:0.8;stroke:#1f77b4;stroke-opacity:0.8;" x="177.305283" xlink:href="#m5a6e9e208d" y="137.707491"/>
     <use style="fill:#1f77b4;fill-opacity:0.8;stroke:#1f77b4;stroke-opacity:0.8;" x="74.426057" xlink:href="#m5a6e9e208d" y="165.731423"/>
     <use style="fill:#1f77b4;fill-opacity:0.8;stroke:#1f77b4;stroke-opacity:0.8;" x="48.70625" xlink:href="#m5a6e9e208d" y="137.707491"/>
     <use style="fill:#1f77b4;fill-opacity:0.8;stroke:#1f77b4;stroke-opacity:0.8;" x="100.145863" xlink:href="#m5a6e9e208d" y="193.755354"/>
     <use style="fill:#1f77b4;fill-opacity:0.8;stroke:#1f77b4;stroke-opacity:0.8;" x="125.86567" xlink:href="#m5a6e9e208d" y="186.749371"/>
     <use style="fill:#1f77b4;fill-opacity:0.8;stroke:#1f77b4;stroke-opacity:0.8;" x="151.585476" xlink:href="#m5a6e9e208d" y="144.713474"/>
     <use style="fill:#1f77b4;fill-opacity:0.8;stroke:#1f77b4;stroke-opacity:0.8;" x="305.904315" xlink:href="#m5a6e9e208d" y="186.749371"/>
     <use style="fill:#1f77b4;fill-opacity:0.8;stroke:#1f77b4;stroke-opacity:0.8;" x="177.305283" xlink:href="#m5a6e9e208d" y="123.695525"/>
     <use style="fill:#1f77b4;fill-opacity:0.8;stroke:#1f77b4;stroke-opacity:0.8;" x="177.305283" xlink:href="#m5a6e9e208d" y="151.719457"/>
     <use style="fill:#1f77b4;fill-opacity:0.8;stroke:#1f77b4;stroke-opacity:0.8;" x="254.464702" xlink:href="#m5a6e9e208d" y="116.689543"/>
     <use style="fill:#1f77b4;fill-opacity:0.8;stroke:#1f77b4;stroke-opacity:0.8;" x="151.585476" xlink:href="#m5a6e9e208d" y="165.731423"/>
     <use style="fill:#1f77b4;fill-opacity:0.8;stroke:#1f77b4;stroke-opacity:0.8;" x="228.744896" xlink:href="#m5a6e9e208d" y="144.713474"/>
     <use style="fill:#1f77b4;fill-opacity:0.8;stroke:#1f77b4;stroke-opacity:0.8;" x="125.86567" xlink:href="#m5a6e9e208d" y="200.761337"/>
     <use style="fill:#1f77b4;fill-opacity:0.8;stroke:#1f77b4;stroke-opacity:0.8;" x="100.145863" xlink:href="#m5a6e9e208d" y="116.689543"/>
     <use style="fill:#1f77b4;fill-opacity:0.8;stroke:#1f77b4;stroke-opacity:0.8;" x="203.025089" xlink:href="#m5a6e9e208d" y="123.695525"/>
     <use style="fill:#1f77b4;fill-opacity:0.8;stroke:#1f77b4;stroke-opacity:0.8;" x="254.464702" xlink:href="#m5a6e9e208d" y="130.701508"/>
     <use style="fill:#1f77b4;fill-opacity:0.8;stroke:#1f77b4;stroke-opacity:0.8;" x="280.184509" xlink:href="#m5a6e9e208d" y="95.671594"/>
     <use style="fill:#1f77b4;fill-opacity:0.8;stroke:#1f77b4;stroke-opacity:0.8;" x="254.464702" xlink:href="#m5a6e9e208d" y="137.707491"/>
     <use style="fill:#1f77b4;fill-opacity:0.8;stroke:#1f77b4;stroke-opacity:0.8;" x="228.744896" xlink:href="#m5a6e9e208d" y="137.707491"/>
     <use style="fill:#1f77b4;fill-opacity:0.8;stroke:#1f77b4;stroke-opacity:0.8;" x="228.744896" xlink:href="#m5a6e9e208d" y="137.707491"/>
     <use style="fill:#1f77b4;fill-opacity:0.8;stroke:#1f77b4;stroke-opacity:0.8;" x="254.464702" xlink:href="#m5a6e9e208d" y="137.707491"/>
     <use style="fill:#1f77b4;fill-opacity:0.8;stroke:#1f77b4;stroke-opacity:0.8;" x="254.464702" xlink:href="#m5a6e9e208d" y="102.677577"/>
     <use style="fill:#1f77b4;fill-opacity:0.8;stroke:#1f77b4;stroke-opacity:0.8;" x="100.145863" xlink:href="#m5a6e9e208d" y="130.701508"/>
     <use style="fill:#1f77b4;fill-opacity:0.8;stroke:#1f77b4;stroke-opacity:0.8;" x="228.744896" xlink:href="#m5a6e9e208d" y="130.701508"/>
     <use style="fill:#1f77b4;fill-opacity:0.8;stroke:#1f77b4;stroke-opacity:0.8;" x="177.305283" xlink:href="#m5a6e9e208d" y="130.701508"/>
     <use style="fill:#1f77b4;fill-opacity:0.8;stroke:#1f77b4;stroke-opacity:0.8;" x="177.305283" xlink:href="#m5a6e9e208d" y="123.695525"/>
     <use style="fill:#1f77b4;fill-opacity:0.8;stroke:#1f77b4;stroke-opacity:0.8;" x="151.585476" xlink:href="#m5a6e9e208d" y="123.695525"/>
     <use style="fill:#1f77b4;fill-opacity:0.8;stroke:#1f77b4;stroke-opacity:0.8;" x="177.305283" xlink:href="#m5a6e9e208d" y="123.695525"/>
     <use style="fill:#1f77b4;fill-opacity:0.8;stroke:#1f77b4;stroke-opacity:0.8;" x="177.305283" xlink:href="#m5a6e9e208d" y="102.677577"/>
     <use style="fill:#1f77b4;fill-opacity:0.8;stroke:#1f77b4;stroke-opacity:0.8;" x="177.305283" xlink:href="#m5a6e9e208d" y="116.689543"/>
     <use style="fill:#1f77b4;fill-opacity:0.8;stroke:#1f77b4;stroke-opacity:0.8;" x="100.145863" xlink:href="#m5a6e9e208d" y="144.713474"/>
     <use style="fill:#1f77b4;fill-opacity:0.8;stroke:#1f77b4;stroke-opacity:0.8;" x="254.464702" xlink:href="#m5a6e9e208d" y="116.689543"/>
     <use style="fill:#1f77b4;fill-opacity:0.8;stroke:#1f77b4;stroke-opacity:0.8;" x="203.025089" xlink:href="#m5a6e9e208d" y="130.701508"/>
     <use style="fill:#1f77b4;fill-opacity:0.8;stroke:#1f77b4;stroke-opacity:0.8;" x="203.025089" xlink:href="#m5a6e9e208d" y="137.707491"/>
     <use style="fill:#1f77b4;fill-opacity:0.8;stroke:#1f77b4;stroke-opacity:0.8;" x="177.305283" xlink:href="#m5a6e9e208d" y="123.695525"/>
     <use style="fill:#1f77b4;fill-opacity:0.8;stroke:#1f77b4;stroke-opacity:0.8;" x="228.744896" xlink:href="#m5a6e9e208d" y="123.695525"/>
     <use style="fill:#1f77b4;fill-opacity:0.8;stroke:#1f77b4;stroke-opacity:0.8;" x="100.145863" xlink:href="#m5a6e9e208d" y="123.695525"/>
     <use style="fill:#1f77b4;fill-opacity:0.8;stroke:#1f77b4;stroke-opacity:0.8;" x="228.744896" xlink:href="#m5a6e9e208d" y="158.72544"/>
     <use style="fill:#1f77b4;fill-opacity:0.8;stroke:#1f77b4;stroke-opacity:0.8;" x="177.305283" xlink:href="#m5a6e9e208d" y="137.707491"/>
    </g>
   </g>
   <g id="PolyCollection_1">
    <path clip-path="url(#p6c18e29543)" d="M 48.70625 159.282798 
L 48.70625 201.544354 
L 51.823802 199.342507 
L 54.941355 197.360172 
L 58.058907 195.311311 
L 61.176459 193.292914 
L 64.294012 191.15528 
L 67.411564 189.500464 
L 70.529116 187.701308 
L 73.646668 186.070113 
L 76.764221 184.513887 
L 79.881773 182.848675 
L 82.999325 181.27137 
L 86.116878 179.524323 
L 89.23443 177.772308 
L 92.351982 176.457362 
L 95.469535 175.099628 
L 98.587087 173.858424 
L 101.704639 172.601345 
L 104.822192 171.327769 
L 107.939744 170.002357 
L 111.057296 168.750662 
L 114.174848 167.462906 
L 117.292401 166.165323 
L 120.409953 164.965179 
L 123.527505 163.996944 
L 126.645058 162.724645 
L 129.76261 161.74945 
L 132.880162 160.902762 
L 135.997715 160.056496 
L 139.115267 159.209097 
L 142.232819 158.43522 
L 145.350372 157.534953 
L 148.467924 156.807641 
L 151.585476 156.02564 
L 154.703028 155.256278 
L 157.820581 154.431383 
L 160.938133 153.727594 
L 164.055685 153.09202 
L 167.173238 152.526419 
L 170.29079 151.930393 
L 173.408342 151.374682 
L 176.525895 150.782996 
L 179.643447 150.131571 
L 182.760999 149.564756 
L 185.878552 148.98527 
L 188.996104 148.365942 
L 192.113656 147.729651 
L 195.231209 147.08938 
L 198.348761 146.486227 
L 201.466313 146.015165 
L 204.583865 145.421376 
L 207.701418 144.858817 
L 210.81897 144.542159 
L 213.936522 144.097227 
L 217.054075 143.691106 
L 220.171627 143.215992 
L 223.289179 142.719214 
L 226.406732 142.286821 
L 229.524284 141.889621 
L 232.641836 141.665448 
L 235.759389 141.248467 
L 238.876941 140.788469 
L 241.994493 140.458848 
L 245.112045 140.262273 
L 248.229598 140.163884 
L 251.34715 140.070073 
L 254.464702 140.39284 
L 257.582255 140.761587 
L 260.699807 141.079422 
L 263.817359 141.287017 
L 266.934912 141.396538 
L 270.052464 141.87899 
L 273.170016 142.215265 
L 276.287569 142.428684 
L 279.405121 143.02839 
L 282.522673 143.323716 
L 285.640225 143.961904 
L 288.757778 144.484709 
L 291.87533 145.241771 
L 294.992882 145.831462 
L 298.110435 146.334135 
L 301.227987 147.016835 
L 304.345539 147.629361 
L 307.463092 148.558977 
L 310.580644 149.547866 
L 313.698196 150.442393 
L 316.815749 151.360604 
L 319.933301 152.314985 
L 323.050853 153.299468 
L 326.168405 154.050743 
L 329.285958 154.889512 
L 332.40351 156.080833 
L 335.521062 157.053159 
L 338.638615 158.053828 
L 341.756167 159.078962 
L 344.873719 160.132555 
L 347.991272 161.214607 
L 351.108824 162.325119 
L 354.226376 163.464091 
L 357.343929 164.631522 
L 357.343929 90.129091 
L 357.343929 90.129091 
L 354.226376 91.519208 
L 351.108824 92.694232 
L 347.991272 94.015414 
L 344.873719 95.280049 
L 341.756167 96.497446 
L 338.638615 97.630621 
L 335.521062 98.712253 
L 332.40351 99.816665 
L 329.285958 101.038805 
L 326.168405 102.175708 
L 323.050853 103.104829 
L 319.933301 104.237241 
L 316.815749 105.390573 
L 313.698196 106.358974 
L 310.580644 107.212355 
L 307.463092 108.166545 
L 304.345539 109.115315 
L 301.227987 110.007784 
L 298.110435 111.140658 
L 294.992882 112.168613 
L 291.87533 113.027501 
L 288.757778 114.014687 
L 285.640225 114.966473 
L 282.522673 116.032881 
L 279.405121 117.174836 
L 276.287569 118.1162 
L 273.170016 118.949501 
L 270.052464 119.69832 
L 266.934912 120.41196 
L 263.817359 121.206215 
L 260.699807 121.963337 
L 257.582255 122.45855 
L 254.464702 123.141795 
L 251.34715 123.84846 
L 248.229598 124.564711 
L 245.112045 125.292444 
L 241.994493 125.867282 
L 238.876941 126.504848 
L 235.759389 127.32081 
L 232.641836 127.847246 
L 229.524284 128.596409 
L 226.406732 129.229298 
L 223.289179 129.864749 
L 220.171627 130.499071 
L 217.054075 131.126197 
L 213.936522 131.537978 
L 210.81897 132.384487 
L 207.701418 132.903298 
L 204.583865 133.448534 
L 201.466313 133.961982 
L 198.348761 134.590115 
L 195.231209 135.165546 
L 192.113656 135.752646 
L 188.996104 136.347611 
L 185.878552 136.883865 
L 182.760999 137.436118 
L 179.643447 138.192345 
L 176.525895 138.863052 
L 173.408342 139.451055 
L 170.29079 140.080543 
L 167.173238 140.828899 
L 164.055685 141.532583 
L 160.938133 142.210124 
L 157.820581 142.826174 
L 154.703028 143.512039 
L 151.585476 144.253367 
L 148.467924 145.004379 
L 145.350372 145.673908 
L 142.232819 146.620004 
L 139.115267 147.300222 
L 135.997715 148.052916 
L 132.880162 148.815406 
L 129.76261 149.481825 
L 126.645058 150.166011 
L 123.527505 150.781161 
L 120.409953 151.31005 
L 117.292401 151.989427 
L 114.174848 152.634506 
L 111.057296 152.914754 
L 107.939744 153.276323 
L 104.822192 153.751585 
L 101.704639 154.357893 
L 98.587087 154.972601 
L 95.469535 155.579227 
L 92.351982 155.918651 
L 89.23443 156.266247 
L 86.116878 156.629023 
L 82.999325 156.865815 
L 79.881773 157.395949 
L 76.764221 157.782735 
L 73.646668 157.927461 
L 70.529116 158.215743 
L 67.411564 158.227779 
L 64.294012 158.424956 
L 61.176459 158.606502 
L 58.058907 158.792609 
L 54.941355 159.020252 
L 51.823802 159.136071 
L 48.70625 159.282798 
z
" style="fill:#1f77b4;fill-opacity:0.15;"/>
   </g>
   <g id="matplotlib.axis_1">
    <g id="xtick_1">
     <g id="line2d_1">
      <defs>
       <path d="M 0 0 
L 0 3.5 
" id="m6dfc6a0cc0" style="stroke:#000000;stroke-width:0.8;"/>
      </defs>
      <g>
       <use style="stroke:#000000;stroke-width:0.8;" x="48.70625" xlink:href="#m6dfc6a0cc0" y="390.2"/>
      </g>
     </g>
     <g id="text_1">
      <!-- 88 -->
      <g transform="translate(42.34375 404.798437)scale(0.1 -0.1)">
       <defs>
        <path d="M 31.78125 34.625 
Q 24.75 34.625 20.71875 30.859375 
Q 16.703125 27.09375 16.703125 20.515625 
Q 16.703125 13.921875 20.71875 10.15625 
Q 24.75 6.390625 31.78125 6.390625 
Q 38.8125 6.390625 42.859375 10.171875 
Q 46.921875 13.96875 46.921875 20.515625 
Q 46.921875 27.09375 42.890625 30.859375 
Q 38.875 34.625 31.78125 34.625 
z
M 21.921875 38.8125 
Q 15.578125 40.375 12.03125 44.71875 
Q 8.5 49.078125 8.5 55.328125 
Q 8.5 64.0625 14.71875 69.140625 
Q 20.953125 74.21875 31.78125 74.21875 
Q 42.671875 74.21875 48.875 69.140625 
Q 55.078125 64.0625 55.078125 55.328125 
Q 55.078125 49.078125 51.53125 44.71875 
Q 48 40.375 41.703125 38.8125 
Q 48.828125 37.15625 52.796875 32.3125 
Q 56.78125 27.484375 56.78125 20.515625 
Q 56.78125 9.90625 50.3125 4.234375 
Q 43.84375 -1.421875 31.78125 -1.421875 
Q 19.734375 -1.421875 13.25 4.234375 
Q 6.78125 9.90625 6.78125 20.515625 
Q 6.78125 27.484375 10.78125 32.3125 
Q 14.796875 37.15625 21.921875 38.8125 
z
M 18.3125 54.390625 
Q 18.3125 48.734375 21.84375 45.5625 
Q 25.390625 42.390625 31.78125 42.390625 
Q 38.140625 42.390625 41.71875 45.5625 
Q 45.3125 48.734375 45.3125 54.390625 
Q 45.3125 60.0625 41.71875 63.234375 
Q 38.140625 66.40625 31.78125 66.40625 
Q 25.390625 66.40625 21.84375 63.234375 
Q 18.3125 60.0625 18.3125 54.390625 
z
" id="DejaVuSans-56"/>
       </defs>
       <use xlink:href="#DejaVuSans-56"/>
       <use x="63.623047" xlink:href="#DejaVuSans-56"/>
      </g>
     </g>
    </g>
    <g id="xtick_2">
     <g id="line2d_2">
      <g>
       <use style="stroke:#000000;stroke-width:0.8;" x="100.145863" xlink:href="#m6dfc6a0cc0" y="390.2"/>
      </g>
     </g>
     <g id="text_2">
      <!-- 90 -->
      <g transform="translate(93.783363 404.798437)scale(0.1 -0.1)">
       <defs>
        <path d="M 10.984375 1.515625 
L 10.984375 10.5 
Q 14.703125 8.734375 18.5 7.8125 
Q 22.3125 6.890625 25.984375 6.890625 
Q 35.75 6.890625 40.890625 13.453125 
Q 46.046875 20.015625 46.78125 33.40625 
Q 43.953125 29.203125 39.59375 26.953125 
Q 35.25 24.703125 29.984375 24.703125 
Q 19.046875 24.703125 12.671875 31.3125 
Q 6.296875 37.9375 6.296875 49.421875 
Q 6.296875 60.640625 12.9375 67.421875 
Q 19.578125 74.21875 30.609375 74.21875 
Q 43.265625 74.21875 49.921875 64.515625 
Q 56.59375 54.828125 56.59375 36.375 
Q 56.59375 19.140625 48.40625 8.859375 
Q 40.234375 -1.421875 26.421875 -1.421875 
Q 22.703125 -1.421875 18.890625 -0.6875 
Q 15.09375 0.046875 10.984375 1.515625 
z
M 30.609375 32.421875 
Q 37.25 32.421875 41.125 36.953125 
Q 45.015625 41.5 45.015625 49.421875 
Q 45.015625 57.28125 41.125 61.84375 
Q 37.25 66.40625 30.609375 66.40625 
Q 23.96875 66.40625 20.09375 61.84375 
Q 16.21875 57.28125 16.21875 49.421875 
Q 16.21875 41.5 20.09375 36.953125 
Q 23.96875 32.421875 30.609375 32.421875 
z
" id="DejaVuSans-57"/>
        <path d="M 31.78125 66.40625 
Q 24.171875 66.40625 20.328125 58.90625 
Q 16.5 51.421875 16.5 36.375 
Q 16.5 21.390625 20.328125 13.890625 
Q 24.171875 6.390625 31.78125 6.390625 
Q 39.453125 6.390625 43.28125 13.890625 
Q 47.125 21.390625 47.125 36.375 
Q 47.125 51.421875 43.28125 58.90625 
Q 39.453125 66.40625 31.78125 66.40625 
z
M 31.78125 74.21875 
Q 44.046875 74.21875 50.515625 64.515625 
Q 56.984375 54.828125 56.984375 36.375 
Q 56.984375 17.96875 50.515625 8.265625 
Q 44.046875 -1.421875 31.78125 -1.421875 
Q 19.53125 -1.421875 13.0625 8.265625 
Q 6.59375 17.96875 6.59375 36.375 
Q 6.59375 54.828125 13.0625 64.515625 
Q 19.53125 74.21875 31.78125 74.21875 
z
" id="DejaVuSans-48"/>
       </defs>
       <use xlink:href="#DejaVuSans-57"/>
       <use x="63.623047" xlink:href="#DejaVuSans-48"/>
      </g>
     </g>
    </g>
    <g id="xtick_3">
     <g id="line2d_3">
      <g>
       <use style="stroke:#000000;stroke-width:0.8;" x="151.585476" xlink:href="#m6dfc6a0cc0" y="390.2"/>
      </g>
     </g>
     <g id="text_3">
      <!-- 92 -->
      <g transform="translate(145.222976 404.798437)scale(0.1 -0.1)">
       <defs>
        <path d="M 19.1875 8.296875 
L 53.609375 8.296875 
L 53.609375 0 
L 7.328125 0 
L 7.328125 8.296875 
Q 12.9375 14.109375 22.625 23.890625 
Q 32.328125 33.6875 34.8125 36.53125 
Q 39.546875 41.84375 41.421875 45.53125 
Q 43.3125 49.21875 43.3125 52.78125 
Q 43.3125 58.59375 39.234375 62.25 
Q 35.15625 65.921875 28.609375 65.921875 
Q 23.96875 65.921875 18.8125 64.3125 
Q 13.671875 62.703125 7.8125 59.421875 
L 7.8125 69.390625 
Q 13.765625 71.78125 18.9375 73 
Q 24.125 74.21875 28.421875 74.21875 
Q 39.75 74.21875 46.484375 68.546875 
Q 53.21875 62.890625 53.21875 53.421875 
Q 53.21875 48.921875 51.53125 44.890625 
Q 49.859375 40.875 45.40625 35.40625 
Q 44.1875 33.984375 37.640625 27.21875 
Q 31.109375 20.453125 19.1875 8.296875 
z
" id="DejaVuSans-50"/>
       </defs>
       <use xlink:href="#DejaVuSans-57"/>
       <use x="63.623047" xlink:href="#DejaVuSans-50"/>
      </g>
     </g>
    </g>
    <g id="xtick_4">
     <g id="line2d_4">
      <g>
       <use style="stroke:#000000;stroke-width:0.8;" x="203.025089" xlink:href="#m6dfc6a0cc0" y="390.2"/>
      </g>
     </g>
     <g id="text_4">
      <!-- 94 -->
      <g transform="translate(196.662589 404.798437)scale(0.1 -0.1)">
       <defs>
        <path d="M 37.796875 64.3125 
L 12.890625 25.390625 
L 37.796875 25.390625 
z
M 35.203125 72.90625 
L 47.609375 72.90625 
L 47.609375 25.390625 
L 58.015625 25.390625 
L 58.015625 17.1875 
L 47.609375 17.1875 
L 47.609375 0 
L 37.796875 0 
L 37.796875 17.1875 
L 4.890625 17.1875 
L 4.890625 26.703125 
z
" id="DejaVuSans-52"/>
       </defs>
       <use xlink:href="#DejaVuSans-57"/>
       <use x="63.623047" xlink:href="#DejaVuSans-52"/>
      </g>
     </g>
    </g>
    <g id="xtick_5">
     <g id="line2d_5">
      <g>
       <use style="stroke:#000000;stroke-width:0.8;" x="254.464702" xlink:href="#m6dfc6a0cc0" y="390.2"/>
      </g>
     </g>
     <g id="text_5">
      <!-- 96 -->
      <g transform="translate(248.102202 404.798437)scale(0.1 -0.1)">
       <defs>
        <path d="M 33.015625 40.375 
Q 26.375 40.375 22.484375 35.828125 
Q 18.609375 31.296875 18.609375 23.390625 
Q 18.609375 15.53125 22.484375 10.953125 
Q 26.375 6.390625 33.015625 6.390625 
Q 39.65625 6.390625 43.53125 10.953125 
Q 47.40625 15.53125 47.40625 23.390625 
Q 47.40625 31.296875 43.53125 35.828125 
Q 39.65625 40.375 33.015625 40.375 
z
M 52.59375 71.296875 
L 52.59375 62.3125 
Q 48.875 64.0625 45.09375 64.984375 
Q 41.3125 65.921875 37.59375 65.921875 
Q 27.828125 65.921875 22.671875 59.328125 
Q 17.53125 52.734375 16.796875 39.40625 
Q 19.671875 43.65625 24.015625 45.921875 
Q 28.375 48.1875 33.59375 48.1875 
Q 44.578125 48.1875 50.953125 41.515625 
Q 57.328125 34.859375 57.328125 23.390625 
Q 57.328125 12.15625 50.6875 5.359375 
Q 44.046875 -1.421875 33.015625 -1.421875 
Q 20.359375 -1.421875 13.671875 8.265625 
Q 6.984375 17.96875 6.984375 36.375 
Q 6.984375 53.65625 15.1875 63.9375 
Q 23.390625 74.21875 37.203125 74.21875 
Q 40.921875 74.21875 44.703125 73.484375 
Q 48.484375 72.75 52.59375 71.296875 
z
" id="DejaVuSans-54"/>
       </defs>
       <use xlink:href="#DejaVuSans-57"/>
       <use x="63.623047" xlink:href="#DejaVuSans-54"/>
      </g>
     </g>
    </g>
    <g id="xtick_6">
     <g id="line2d_6">
      <g>
       <use style="stroke:#000000;stroke-width:0.8;" x="305.904315" xlink:href="#m6dfc6a0cc0" y="390.2"/>
      </g>
     </g>
     <g id="text_6">
      <!-- 98 -->
      <g transform="translate(299.541815 404.798437)scale(0.1 -0.1)">
       <use xlink:href="#DejaVuSans-57"/>
       <use x="63.623047" xlink:href="#DejaVuSans-56"/>
      </g>
     </g>
    </g>
    <g id="xtick_7">
     <g id="line2d_7">
      <g>
       <use style="stroke:#000000;stroke-width:0.8;" x="357.343929" xlink:href="#m6dfc6a0cc0" y="390.2"/>
      </g>
     </g>
     <g id="text_7">
      <!-- 100 -->
      <g transform="translate(347.800179 404.798437)scale(0.1 -0.1)">
       <defs>
        <path d="M 12.40625 8.296875 
L 28.515625 8.296875 
L 28.515625 63.921875 
L 10.984375 60.40625 
L 10.984375 69.390625 
L 28.421875 72.90625 
L 38.28125 72.90625 
L 38.28125 8.296875 
L 54.390625 8.296875 
L 54.390625 0 
L 12.40625 0 
z
" id="DejaVuSans-49"/>
       </defs>
       <use xlink:href="#DejaVuSans-49"/>
       <use x="63.623047" xlink:href="#DejaVuSans-48"/>
       <use x="127.246094" xlink:href="#DejaVuSans-48"/>
      </g>
     </g>
    </g>
    <g id="text_8">
     <!-- Critic Rating -->
     <g transform="translate(141.542277 426.075)scale(0.2 -0.2)">
      <defs>
       <path d="M 64.40625 67.28125 
L 64.40625 56.890625 
Q 59.421875 61.53125 53.78125 63.8125 
Q 48.140625 66.109375 41.796875 66.109375 
Q 29.296875 66.109375 22.65625 58.46875 
Q 16.015625 50.828125 16.015625 36.375 
Q 16.015625 21.96875 22.65625 14.328125 
Q 29.296875 6.6875 41.796875 6.6875 
Q 48.140625 6.6875 53.78125 8.984375 
Q 59.421875 11.28125 64.40625 15.921875 
L 64.40625 5.609375 
Q 59.234375 2.09375 53.4375 0.328125 
Q 47.65625 -1.421875 41.21875 -1.421875 
Q 24.65625 -1.421875 15.125 8.703125 
Q 5.609375 18.84375 5.609375 36.375 
Q 5.609375 53.953125 15.125 64.078125 
Q 24.65625 74.21875 41.21875 74.21875 
Q 47.75 74.21875 53.53125 72.484375 
Q 59.328125 70.75 64.40625 67.28125 
z
" id="DejaVuSans-67"/>
       <path d="M 41.109375 46.296875 
Q 39.59375 47.171875 37.8125 47.578125 
Q 36.03125 48 33.890625 48 
Q 26.265625 48 22.1875 43.046875 
Q 18.109375 38.09375 18.109375 28.8125 
L 18.109375 0 
L 9.078125 0 
L 9.078125 54.6875 
L 18.109375 54.6875 
L 18.109375 46.1875 
Q 20.953125 51.171875 25.484375 53.578125 
Q 30.03125 56 36.53125 56 
Q 37.453125 56 38.578125 55.875 
Q 39.703125 55.765625 41.0625 55.515625 
z
" id="DejaVuSans-114"/>
       <path d="M 9.421875 54.6875 
L 18.40625 54.6875 
L 18.40625 0 
L 9.421875 0 
z
M 9.421875 75.984375 
L 18.40625 75.984375 
L 18.40625 64.59375 
L 9.421875 64.59375 
z
" id="DejaVuSans-105"/>
       <path d="M 18.3125 70.21875 
L 18.3125 54.6875 
L 36.8125 54.6875 
L 36.8125 47.703125 
L 18.3125 47.703125 
L 18.3125 18.015625 
Q 18.3125 11.328125 20.140625 9.421875 
Q 21.96875 7.515625 27.59375 7.515625 
L 36.8125 7.515625 
L 36.8125 0 
L 27.59375 0 
Q 17.1875 0 13.234375 3.875 
Q 9.28125 7.765625 9.28125 18.015625 
L 9.28125 47.703125 
L 2.6875 47.703125 
L 2.6875 54.6875 
L 9.28125 54.6875 
L 9.28125 70.21875 
z
" id="DejaVuSans-116"/>
       <path d="M 48.78125 52.59375 
L 48.78125 44.1875 
Q 44.96875 46.296875 41.140625 47.34375 
Q 37.3125 48.390625 33.40625 48.390625 
Q 24.65625 48.390625 19.8125 42.84375 
Q 14.984375 37.3125 14.984375 27.296875 
Q 14.984375 17.28125 19.8125 11.734375 
Q 24.65625 6.203125 33.40625 6.203125 
Q 37.3125 6.203125 41.140625 7.25 
Q 44.96875 8.296875 48.78125 10.40625 
L 48.78125 2.09375 
Q 45.015625 0.34375 40.984375 -0.53125 
Q 36.96875 -1.421875 32.421875 -1.421875 
Q 20.0625 -1.421875 12.78125 6.34375 
Q 5.515625 14.109375 5.515625 27.296875 
Q 5.515625 40.671875 12.859375 48.328125 
Q 20.21875 56 33.015625 56 
Q 37.15625 56 41.109375 55.140625 
Q 45.0625 54.296875 48.78125 52.59375 
z
" id="DejaVuSans-99"/>
       <path id="DejaVuSans-32"/>
       <path d="M 44.390625 34.1875 
Q 47.5625 33.109375 50.5625 29.59375 
Q 53.5625 26.078125 56.59375 19.921875 
L 66.609375 0 
L 56 0 
L 46.6875 18.703125 
Q 43.0625 26.03125 39.671875 28.421875 
Q 36.28125 30.8125 30.421875 30.8125 
L 19.671875 30.8125 
L 19.671875 0 
L 9.8125 0 
L 9.8125 72.90625 
L 32.078125 72.90625 
Q 44.578125 72.90625 50.734375 67.671875 
Q 56.890625 62.453125 56.890625 51.90625 
Q 56.890625 45.015625 53.6875 40.46875 
Q 50.484375 35.9375 44.390625 34.1875 
z
M 19.671875 64.796875 
L 19.671875 38.921875 
L 32.078125 38.921875 
Q 39.203125 38.921875 42.84375 42.21875 
Q 46.484375 45.515625 46.484375 51.90625 
Q 46.484375 58.296875 42.84375 61.546875 
Q 39.203125 64.796875 32.078125 64.796875 
z
" id="DejaVuSans-82"/>
       <path d="M 34.28125 27.484375 
Q 23.390625 27.484375 19.1875 25 
Q 14.984375 22.515625 14.984375 16.5 
Q 14.984375 11.71875 18.140625 8.90625 
Q 21.296875 6.109375 26.703125 6.109375 
Q 34.1875 6.109375 38.703125 11.40625 
Q 43.21875 16.703125 43.21875 25.484375 
L 43.21875 27.484375 
z
M 52.203125 31.203125 
L 52.203125 0 
L 43.21875 0 
L 43.21875 8.296875 
Q 40.140625 3.328125 35.546875 0.953125 
Q 30.953125 -1.421875 24.3125 -1.421875 
Q 15.921875 -1.421875 10.953125 3.296875 
Q 6 8.015625 6 15.921875 
Q 6 25.140625 12.171875 29.828125 
Q 18.359375 34.515625 30.609375 34.515625 
L 43.21875 34.515625 
L 43.21875 35.40625 
Q 43.21875 41.609375 39.140625 45 
Q 35.0625 48.390625 27.6875 48.390625 
Q 23 48.390625 18.546875 47.265625 
Q 14.109375 46.140625 10.015625 43.890625 
L 10.015625 52.203125 
Q 14.9375 54.109375 19.578125 55.046875 
Q 24.21875 56 28.609375 56 
Q 40.484375 56 46.34375 49.84375 
Q 52.203125 43.703125 52.203125 31.203125 
z
" id="DejaVuSans-97"/>
       <path d="M 54.890625 33.015625 
L 54.890625 0 
L 45.90625 0 
L 45.90625 32.71875 
Q 45.90625 40.484375 42.875 44.328125 
Q 39.84375 48.1875 33.796875 48.1875 
Q 26.515625 48.1875 22.3125 43.546875 
Q 18.109375 38.921875 18.109375 30.90625 
L 18.109375 0 
L 9.078125 0 
L 9.078125 54.6875 
L 18.109375 54.6875 
L 18.109375 46.1875 
Q 21.34375 51.125 25.703125 53.5625 
Q 30.078125 56 35.796875 56 
Q 45.21875 56 50.046875 50.171875 
Q 54.890625 44.34375 54.890625 33.015625 
z
" id="DejaVuSans-110"/>
       <path d="M 45.40625 27.984375 
Q 45.40625 37.75 41.375 43.109375 
Q 37.359375 48.484375 30.078125 48.484375 
Q 22.859375 48.484375 18.828125 43.109375 
Q 14.796875 37.75 14.796875 27.984375 
Q 14.796875 18.265625 18.828125 12.890625 
Q 22.859375 7.515625 30.078125 7.515625 
Q 37.359375 7.515625 41.375 12.890625 
Q 45.40625 18.265625 45.40625 27.984375 
z
M 54.390625 6.78125 
Q 54.390625 -7.171875 48.1875 -13.984375 
Q 42 -20.796875 29.203125 -20.796875 
Q 24.46875 -20.796875 20.265625 -20.09375 
Q 16.0625 -19.390625 12.109375 -17.921875 
L 12.109375 -9.1875 
Q 16.0625 -11.328125 19.921875 -12.34375 
Q 23.78125 -13.375 27.78125 -13.375 
Q 36.625 -13.375 41.015625 -8.765625 
Q 45.40625 -4.15625 45.40625 5.171875 
L 45.40625 9.625 
Q 42.625 4.78125 38.28125 2.390625 
Q 33.9375 0 27.875 0 
Q 17.828125 0 11.671875 7.65625 
Q 5.515625 15.328125 5.515625 27.984375 
Q 5.515625 40.671875 11.671875 48.328125 
Q 17.828125 56 27.875 56 
Q 33.9375 56 38.28125 53.609375 
Q 42.625 51.21875 45.40625 46.390625 
L 45.40625 54.6875 
L 54.390625 54.6875 
z
" id="DejaVuSans-103"/>
      </defs>
      <use xlink:href="#DejaVuSans-67"/>
      <use x="69.824219" xlink:href="#DejaVuSans-114"/>
      <use x="110.9375" xlink:href="#DejaVuSans-105"/>
      <use x="138.720703" xlink:href="#DejaVuSans-116"/>
      <use x="177.929688" xlink:href="#DejaVuSans-105"/>
      <use x="205.712891" xlink:href="#DejaVuSans-99"/>
      <use x="260.693359" xlink:href="#DejaVuSans-32"/>
      <use x="292.480469" xlink:href="#DejaVuSans-82"/>
      <use x="359.712891" xlink:href="#DejaVuSans-97"/>
      <use x="420.992188" xlink:href="#DejaVuSans-116"/>
      <use x="460.201172" xlink:href="#DejaVuSans-105"/>
      <use x="487.984375" xlink:href="#DejaVuSans-110"/>
      <use x="551.363281" xlink:href="#DejaVuSans-103"/>
     </g>
    </g>
   </g>
   <g id="matplotlib.axis_2">
    <g id="ytick_1">
     <g id="line2d_8">
      <defs>
       <path d="M 0 0 
L -3.5 0 
" id="mcc17041353" style="stroke:#000000;stroke-width:0.8;"/>
      </defs>
      <g>
       <use style="stroke:#000000;stroke-width:0.8;" x="48.70625" xlink:href="#mcc17041353" y="375.910909"/>
      </g>
     </g>
     <g id="text_9">
      <!-- 1.0 -->
      <g transform="translate(25.803125 379.710128)scale(0.1 -0.1)">
       <defs>
        <path d="M 10.6875 12.40625 
L 21 12.40625 
L 21 0 
L 10.6875 0 
z
" id="DejaVuSans-46"/>
       </defs>
       <use xlink:href="#DejaVuSans-49"/>
       <use x="63.623047" xlink:href="#DejaVuSans-46"/>
       <use x="95.410156" xlink:href="#DejaVuSans-48"/>
      </g>
     </g>
    </g>
    <g id="ytick_2">
     <g id="line2d_9">
      <g>
       <use style="stroke:#000000;stroke-width:0.8;" x="48.70625" xlink:href="#mcc17041353" y="340.880995"/>
      </g>
     </g>
     <g id="text_10">
      <!-- 1.5 -->
      <g transform="translate(25.803125 344.680213)scale(0.1 -0.1)">
       <defs>
        <path d="M 10.796875 72.90625 
L 49.515625 72.90625 
L 49.515625 64.59375 
L 19.828125 64.59375 
L 19.828125 46.734375 
Q 21.96875 47.46875 24.109375 47.828125 
Q 26.265625 48.1875 28.421875 48.1875 
Q 40.625 48.1875 47.75 41.5 
Q 54.890625 34.8125 54.890625 23.390625 
Q 54.890625 11.625 47.5625 5.09375 
Q 40.234375 -1.421875 26.90625 -1.421875 
Q 22.3125 -1.421875 17.546875 -0.640625 
Q 12.796875 0.140625 7.71875 1.703125 
L 7.71875 11.625 
Q 12.109375 9.234375 16.796875 8.0625 
Q 21.484375 6.890625 26.703125 6.890625 
Q 35.15625 6.890625 40.078125 11.328125 
Q 45.015625 15.765625 45.015625 23.390625 
Q 45.015625 31 40.078125 35.4375 
Q 35.15625 39.890625 26.703125 39.890625 
Q 22.75 39.890625 18.8125 39.015625 
Q 14.890625 38.140625 10.796875 36.28125 
z
" id="DejaVuSans-53"/>
       </defs>
       <use xlink:href="#DejaVuSans-49"/>
       <use x="63.623047" xlink:href="#DejaVuSans-46"/>
       <use x="95.410156" xlink:href="#DejaVuSans-53"/>
      </g>
     </g>
    </g>
    <g id="ytick_3">
     <g id="line2d_10">
      <g>
       <use style="stroke:#000000;stroke-width:0.8;" x="48.70625" xlink:href="#mcc17041353" y="305.85108"/>
      </g>
     </g>
     <g id="text_11">
      <!-- 2.0 -->
      <g transform="translate(25.803125 309.650299)scale(0.1 -0.1)">
       <use xlink:href="#DejaVuSans-50"/>
       <use x="63.623047" xlink:href="#DejaVuSans-46"/>
       <use x="95.410156" xlink:href="#DejaVuSans-48"/>
      </g>
     </g>
    </g>
    <g id="ytick_4">
     <g id="line2d_11">
      <g>
       <use style="stroke:#000000;stroke-width:0.8;" x="48.70625" xlink:href="#mcc17041353" y="270.821166"/>
      </g>
     </g>
     <g id="text_12">
      <!-- 2.5 -->
      <g transform="translate(25.803125 274.620385)scale(0.1 -0.1)">
       <use xlink:href="#DejaVuSans-50"/>
       <use x="63.623047" xlink:href="#DejaVuSans-46"/>
       <use x="95.410156" xlink:href="#DejaVuSans-53"/>
      </g>
     </g>
    </g>
    <g id="ytick_5">
     <g id="line2d_12">
      <g>
       <use style="stroke:#000000;stroke-width:0.8;" x="48.70625" xlink:href="#mcc17041353" y="235.791252"/>
      </g>
     </g>
     <g id="text_13">
      <!-- 3.0 -->
      <g transform="translate(25.803125 239.59047)scale(0.1 -0.1)">
       <defs>
        <path d="M 40.578125 39.3125 
Q 47.65625 37.796875 51.625 33 
Q 55.609375 28.21875 55.609375 21.1875 
Q 55.609375 10.40625 48.1875 4.484375 
Q 40.765625 -1.421875 27.09375 -1.421875 
Q 22.515625 -1.421875 17.65625 -0.515625 
Q 12.796875 0.390625 7.625 2.203125 
L 7.625 11.71875 
Q 11.71875 9.328125 16.59375 8.109375 
Q 21.484375 6.890625 26.8125 6.890625 
Q 36.078125 6.890625 40.9375 10.546875 
Q 45.796875 14.203125 45.796875 21.1875 
Q 45.796875 27.640625 41.28125 31.265625 
Q 36.765625 34.90625 28.71875 34.90625 
L 20.21875 34.90625 
L 20.21875 43.015625 
L 29.109375 43.015625 
Q 36.375 43.015625 40.234375 45.921875 
Q 44.09375 48.828125 44.09375 54.296875 
Q 44.09375 59.90625 40.109375 62.90625 
Q 36.140625 65.921875 28.71875 65.921875 
Q 24.65625 65.921875 20.015625 65.03125 
Q 15.375 64.15625 9.8125 62.3125 
L 9.8125 71.09375 
Q 15.4375 72.65625 20.34375 73.4375 
Q 25.25 74.21875 29.59375 74.21875 
Q 40.828125 74.21875 47.359375 69.109375 
Q 53.90625 64.015625 53.90625 55.328125 
Q 53.90625 49.265625 50.4375 45.09375 
Q 46.96875 40.921875 40.578125 39.3125 
z
" id="DejaVuSans-51"/>
       </defs>
       <use xlink:href="#DejaVuSans-51"/>
       <use x="63.623047" xlink:href="#DejaVuSans-46"/>
       <use x="95.410156" xlink:href="#DejaVuSans-48"/>
      </g>
     </g>
    </g>
    <g id="ytick_6">
     <g id="line2d_13">
      <g>
       <use style="stroke:#000000;stroke-width:0.8;" x="48.70625" xlink:href="#mcc17041353" y="200.761337"/>
      </g>
     </g>
     <g id="text_14">
      <!-- 3.5 -->
      <g transform="translate(25.803125 204.560556)scale(0.1 -0.1)">
       <use xlink:href="#DejaVuSans-51"/>
       <use x="63.623047" xlink:href="#DejaVuSans-46"/>
       <use x="95.410156" xlink:href="#DejaVuSans-53"/>
      </g>
     </g>
    </g>
    <g id="ytick_7">
     <g id="line2d_14">
      <g>
       <use style="stroke:#000000;stroke-width:0.8;" x="48.70625" xlink:href="#mcc17041353" y="165.731423"/>
      </g>
     </g>
     <g id="text_15">
      <!-- 4.0 -->
      <g transform="translate(25.803125 169.530641)scale(0.1 -0.1)">
       <use xlink:href="#DejaVuSans-52"/>
       <use x="63.623047" xlink:href="#DejaVuSans-46"/>
       <use x="95.410156" xlink:href="#DejaVuSans-48"/>
      </g>
     </g>
    </g>
    <g id="ytick_8">
     <g id="line2d_15">
      <g>
       <use style="stroke:#000000;stroke-width:0.8;" x="48.70625" xlink:href="#mcc17041353" y="130.701508"/>
      </g>
     </g>
     <g id="text_16">
      <!-- 4.5 -->
      <g transform="translate(25.803125 134.500727)scale(0.1 -0.1)">
       <use xlink:href="#DejaVuSans-52"/>
       <use x="63.623047" xlink:href="#DejaVuSans-46"/>
       <use x="95.410156" xlink:href="#DejaVuSans-53"/>
      </g>
     </g>
    </g>
    <g id="ytick_9">
     <g id="line2d_16">
      <g>
       <use style="stroke:#000000;stroke-width:0.8;" x="48.70625" xlink:href="#mcc17041353" y="95.671594"/>
      </g>
     </g>
     <g id="text_17">
      <!-- 5.0 -->
      <g transform="translate(25.803125 99.470813)scale(0.1 -0.1)">
       <use xlink:href="#DejaVuSans-53"/>
       <use x="63.623047" xlink:href="#DejaVuSans-46"/>
       <use x="95.410156" xlink:href="#DejaVuSans-48"/>
      </g>
     </g>
    </g>
    <g id="text_18">
     <!-- User Rating -->
     <g transform="translate(17.64375 291.22625)rotate(-90)scale(0.2 -0.2)">
      <defs>
       <path d="M 8.6875 72.90625 
L 18.609375 72.90625 
L 18.609375 28.609375 
Q 18.609375 16.890625 22.84375 11.734375 
Q 27.09375 6.59375 36.625 6.59375 
Q 46.09375 6.59375 50.34375 11.734375 
Q 54.59375 16.890625 54.59375 28.609375 
L 54.59375 72.90625 
L 64.5 72.90625 
L 64.5 27.390625 
Q 64.5 13.140625 57.4375 5.859375 
Q 50.390625 -1.421875 36.625 -1.421875 
Q 22.796875 -1.421875 15.734375 5.859375 
Q 8.6875 13.140625 8.6875 27.390625 
z
" id="DejaVuSans-85"/>
       <path d="M 44.28125 53.078125 
L 44.28125 44.578125 
Q 40.484375 46.53125 36.375 47.5 
Q 32.28125 48.484375 27.875 48.484375 
Q 21.1875 48.484375 17.84375 46.4375 
Q 14.5 44.390625 14.5 40.28125 
Q 14.5 37.15625 16.890625 35.375 
Q 19.28125 33.59375 26.515625 31.984375 
L 29.59375 31.296875 
Q 39.15625 29.25 43.1875 25.515625 
Q 47.21875 21.78125 47.21875 15.09375 
Q 47.21875 7.46875 41.1875 3.015625 
Q 35.15625 -1.421875 24.609375 -1.421875 
Q 20.21875 -1.421875 15.453125 -0.5625 
Q 10.6875 0.296875 5.421875 2 
L 5.421875 11.28125 
Q 10.40625 8.6875 15.234375 7.390625 
Q 20.0625 6.109375 24.8125 6.109375 
Q 31.15625 6.109375 34.5625 8.28125 
Q 37.984375 10.453125 37.984375 14.40625 
Q 37.984375 18.0625 35.515625 20.015625 
Q 33.0625 21.96875 24.703125 23.78125 
L 21.578125 24.515625 
Q 13.234375 26.265625 9.515625 29.90625 
Q 5.8125 33.546875 5.8125 39.890625 
Q 5.8125 47.609375 11.28125 51.796875 
Q 16.75 56 26.8125 56 
Q 31.78125 56 36.171875 55.265625 
Q 40.578125 54.546875 44.28125 53.078125 
z
" id="DejaVuSans-115"/>
       <path d="M 56.203125 29.59375 
L 56.203125 25.203125 
L 14.890625 25.203125 
Q 15.484375 15.921875 20.484375 11.0625 
Q 25.484375 6.203125 34.421875 6.203125 
Q 39.59375 6.203125 44.453125 7.46875 
Q 49.3125 8.734375 54.109375 11.28125 
L 54.109375 2.78125 
Q 49.265625 0.734375 44.1875 -0.34375 
Q 39.109375 -1.421875 33.890625 -1.421875 
Q 20.796875 -1.421875 13.15625 6.1875 
Q 5.515625 13.8125 5.515625 26.8125 
Q 5.515625 40.234375 12.765625 48.109375 
Q 20.015625 56 32.328125 56 
Q 43.359375 56 49.78125 48.890625 
Q 56.203125 41.796875 56.203125 29.59375 
z
M 47.21875 32.234375 
Q 47.125 39.59375 43.09375 43.984375 
Q 39.0625 48.390625 32.421875 48.390625 
Q 24.90625 48.390625 20.390625 44.140625 
Q 15.875 39.890625 15.1875 32.171875 
z
" id="DejaVuSans-101"/>
      </defs>
      <use xlink:href="#DejaVuSans-85"/>
      <use x="73.193359" xlink:href="#DejaVuSans-115"/>
      <use x="125.292969" xlink:href="#DejaVuSans-101"/>
      <use x="186.816406" xlink:href="#DejaVuSans-114"/>
      <use x="227.929688" xlink:href="#DejaVuSans-32"/>
      <use x="259.716797" xlink:href="#DejaVuSans-82"/>
      <use x="326.949219" xlink:href="#DejaVuSans-97"/>
      <use x="388.228516" xlink:href="#DejaVuSans-116"/>
      <use x="427.4375" xlink:href="#DejaVuSans-105"/>
      <use x="455.220703" xlink:href="#DejaVuSans-110"/>
      <use x="518.599609" xlink:href="#DejaVuSans-103"/>
     </g>
    </g>
   </g>
   <g id="line2d_17">
    <path clip-path="url(#p6c18e29543)" d="M 48.70625 177.968682 
L 51.823802 177.03483 
L 54.941355 176.107792 
L 58.058907 175.187571 
L 61.176459 174.274164 
L 64.294012 173.367573 
L 67.411564 172.467797 
L 70.529116 171.574837 
L 73.646668 170.688692 
L 76.764221 169.809362 
L 79.881773 168.936847 
L 82.999325 168.071148 
L 86.116878 167.212264 
L 89.23443 166.360196 
L 92.351982 165.514943 
L 95.469535 164.676505 
L 98.587087 163.844882 
L 101.704639 163.020075 
L 104.822192 162.202083 
L 107.939744 161.390907 
L 111.057296 160.586546 
L 114.174848 159.789 
L 117.292401 158.998269 
L 120.409953 158.214354 
L 123.527505 157.437254 
L 126.645058 156.66697 
L 129.76261 155.903501 
L 132.880162 155.146847 
L 135.997715 154.397008 
L 139.115267 153.653985 
L 142.232819 152.917777 
L 145.350372 152.188385 
L 148.467924 151.465807 
L 151.585476 150.750045 
L 154.703028 150.041099 
L 157.820581 149.338968 
L 160.938133 148.643652 
L 164.055685 147.955151 
L 167.173238 147.273466 
L 170.29079 146.598596 
L 173.408342 145.930542 
L 176.525895 145.269302 
L 179.643447 144.614878 
L 182.760999 143.96727 
L 185.878552 143.326477 
L 188.996104 142.692499 
L 192.113656 142.065336 
L 195.231209 141.444989 
L 198.348761 140.831457 
L 201.466313 140.22474 
L 204.583865 139.624839 
L 207.701418 139.031753 
L 210.81897 138.445483 
L 213.936522 137.866027 
L 217.054075 137.293387 
L 220.171627 136.727563 
L 223.289179 136.168554 
L 226.406732 135.61636 
L 229.524284 135.070981 
L 232.641836 134.532418 
L 235.759389 134.00067 
L 238.876941 133.475737 
L 241.994493 132.95762 
L 245.112045 132.446318 
L 248.229598 131.941831 
L 251.34715 131.44416 
L 254.464702 130.953304 
L 257.582255 130.469263 
L 260.699807 129.992038 
L 263.817359 129.521628 
L 266.934912 129.058034 
L 270.052464 128.601254 
L 273.170016 128.15129 
L 276.287569 127.708142 
L 279.405121 127.271808 
L 282.522673 126.84229 
L 285.640225 126.419588 
L 288.757778 126.0037 
L 291.87533 125.594628 
L 294.992882 125.192372 
L 298.110435 124.79693 
L 301.227987 124.408304 
L 304.345539 124.026494 
L 307.463092 123.651498 
L 310.580644 123.283318 
L 313.698196 122.921954 
L 316.815749 122.567404 
L 319.933301 122.21967 
L 323.050853 121.878752 
L 326.168405 121.544648 
L 329.285958 121.21736 
L 332.40351 120.896887 
L 335.521062 120.58323 
L 338.638615 120.276388 
L 341.756167 119.976361 
L 344.873719 119.68315 
L 347.991272 119.396754 
L 351.108824 119.117173 
L 354.226376 118.844408 
L 357.343929 118.578458 
" style="fill:none;stroke:#1f77b4;stroke-linecap:square;stroke-width:2.25;"/>
   </g>
   <g id="patch_3">
    <path d="M 48.70625 390.2 
L 48.70625 75.84 
" style="fill:none;stroke:#000000;stroke-linecap:square;stroke-linejoin:miter;stroke-width:0.8;"/>
   </g>
   <g id="patch_4">
    <path d="M 48.70625 390.2 
L 357.343929 390.2 
" style="fill:none;stroke:#000000;stroke-linecap:square;stroke-linejoin:miter;stroke-width:0.8;"/>
   </g>
   <g id="text_19">
    <!-- User Rating vs. Critic Rating -->
    <g transform="translate(34.603214 -8.75)scale(0.24 -0.24)">
     <defs>
      <path d="M 2.984375 54.6875 
L 12.5 54.6875 
L 29.59375 8.796875 
L 46.6875 54.6875 
L 56.203125 54.6875 
L 35.6875 0 
L 23.484375 0 
z
" id="DejaVuSans-118"/>
     </defs>
     <use xlink:href="#DejaVuSans-85"/>
     <use x="73.193359" xlink:href="#DejaVuSans-115"/>
     <use x="125.292969" xlink:href="#DejaVuSans-101"/>
     <use x="186.816406" xlink:href="#DejaVuSans-114"/>
     <use x="227.929688" xlink:href="#DejaVuSans-32"/>
     <use x="259.716797" xlink:href="#DejaVuSans-82"/>
     <use x="326.949219" xlink:href="#DejaVuSans-97"/>
     <use x="388.228516" xlink:href="#DejaVuSans-116"/>
     <use x="427.4375" xlink:href="#DejaVuSans-105"/>
     <use x="455.220703" xlink:href="#DejaVuSans-110"/>
     <use x="518.599609" xlink:href="#DejaVuSans-103"/>
     <use x="582.076172" xlink:href="#DejaVuSans-32"/>
     <use x="613.863281" xlink:href="#DejaVuSans-118"/>
     <use x="673.042969" xlink:href="#DejaVuSans-115"/>
     <use x="725.142578" xlink:href="#DejaVuSans-46"/>
     <use x="756.929688" xlink:href="#DejaVuSans-32"/>
     <use x="788.716797" xlink:href="#DejaVuSans-67"/>
     <use x="858.541016" xlink:href="#DejaVuSans-114"/>
     <use x="899.654297" xlink:href="#DejaVuSans-105"/>
     <use x="927.4375" xlink:href="#DejaVuSans-116"/>
     <use x="966.646484" xlink:href="#DejaVuSans-105"/>
     <use x="994.429688" xlink:href="#DejaVuSans-99"/>
     <use x="1049.410156" xlink:href="#DejaVuSans-32"/>
     <use x="1081.197266" xlink:href="#DejaVuSans-82"/>
     <use x="1148.429688" xlink:href="#DejaVuSans-97"/>
     <use x="1209.708984" xlink:href="#DejaVuSans-116"/>
     <use x="1248.917969" xlink:href="#DejaVuSans-105"/>
     <use x="1276.701172" xlink:href="#DejaVuSans-110"/>
     <use x="1340.080078" xlink:href="#DejaVuSans-103"/>
    </g>
   </g>
  </g>
  <g id="axes_2">
   <g id="patch_5">
    <path d="M 48.70625 65 
L 357.343929 65 
L 357.343929 10.8 
L 48.70625 10.8 
z
" style="fill:#ffffff;"/>
   </g>
   <g id="patch_6">
    <path clip-path="url(#p6816cd1777)" d="M 48.70625 65 
L 87.28596 65 
L 87.28596 51.234921 
L 48.70625 51.234921 
z
" style="fill:#1f77b4;fill-opacity:0.5;stroke:#000000;stroke-linejoin:miter;"/>
   </g>
   <g id="patch_7">
    <path clip-path="url(#p6816cd1777)" d="M 87.28596 65 
L 125.86567 65 
L 125.86567 32.307937 
L 87.28596 32.307937 
z
" style="fill:#1f77b4;fill-opacity:0.5;stroke:#000000;stroke-linejoin:miter;"/>
   </g>
   <g id="patch_8">
    <path clip-path="url(#p6816cd1777)" d="M 125.86567 65 
L 164.445379 65 
L 164.445379 13.380952 
L 125.86567 13.380952 
z
" style="fill:#1f77b4;fill-opacity:0.5;stroke:#000000;stroke-linejoin:miter;"/>
   </g>
   <g id="patch_9">
    <path clip-path="url(#p6816cd1777)" d="M 164.445379 65 
L 203.025089 65 
L 203.025089 32.307937 
L 164.445379 32.307937 
z
" style="fill:#1f77b4;fill-opacity:0.5;stroke:#000000;stroke-linejoin:miter;"/>
   </g>
   <g id="patch_10">
    <path clip-path="url(#p6816cd1777)" d="M 203.025089 65 
L 241.604799 65 
L 241.604799 23.704762 
L 203.025089 23.704762 
z
" style="fill:#1f77b4;fill-opacity:0.5;stroke:#000000;stroke-linejoin:miter;"/>
   </g>
   <g id="patch_11">
    <path clip-path="url(#p6816cd1777)" d="M 241.604799 65 
L 280.184509 65 
L 280.184509 35.749206 
L 241.604799 35.749206 
z
" style="fill:#1f77b4;fill-opacity:0.5;stroke:#000000;stroke-linejoin:miter;"/>
   </g>
   <g id="patch_12">
    <path clip-path="url(#p6816cd1777)" d="M 280.184509 65 
L 318.764219 65 
L 318.764219 56.396825 
L 280.184509 56.396825 
z
" style="fill:#1f77b4;fill-opacity:0.5;stroke:#000000;stroke-linejoin:miter;"/>
   </g>
   <g id="patch_13">
    <path clip-path="url(#p6816cd1777)" d="M 318.764219 65 
L 357.343929 65 
L 357.343929 61.55873 
L 318.764219 61.55873 
z
" style="fill:#1f77b4;fill-opacity:0.5;stroke:#000000;stroke-linejoin:miter;"/>
   </g>
   <g id="matplotlib.axis_3">
    <g id="xtick_8">
     <g id="line2d_18">
      <g>
       <use style="stroke:#000000;stroke-width:0.8;" x="48.70625" xlink:href="#m6dfc6a0cc0" y="65"/>
      </g>
     </g>
    </g>
    <g id="xtick_9">
     <g id="line2d_19">
      <g>
       <use style="stroke:#000000;stroke-width:0.8;" x="100.145863" xlink:href="#m6dfc6a0cc0" y="65"/>
      </g>
     </g>
    </g>
    <g id="xtick_10">
     <g id="line2d_20">
      <g>
       <use style="stroke:#000000;stroke-width:0.8;" x="151.585476" xlink:href="#m6dfc6a0cc0" y="65"/>
      </g>
     </g>
    </g>
    <g id="xtick_11">
     <g id="line2d_21">
      <g>
       <use style="stroke:#000000;stroke-width:0.8;" x="203.025089" xlink:href="#m6dfc6a0cc0" y="65"/>
      </g>
     </g>
    </g>
    <g id="xtick_12">
     <g id="line2d_22">
      <g>
       <use style="stroke:#000000;stroke-width:0.8;" x="254.464702" xlink:href="#m6dfc6a0cc0" y="65"/>
      </g>
     </g>
    </g>
    <g id="xtick_13">
     <g id="line2d_23">
      <g>
       <use style="stroke:#000000;stroke-width:0.8;" x="305.904315" xlink:href="#m6dfc6a0cc0" y="65"/>
      </g>
     </g>
    </g>
    <g id="xtick_14">
     <g id="line2d_24">
      <g>
       <use style="stroke:#000000;stroke-width:0.8;" x="357.343929" xlink:href="#m6dfc6a0cc0" y="65"/>
      </g>
     </g>
    </g>
   </g>
   <g id="matplotlib.axis_4">
    <g id="ytick_10"/>
    <g id="ytick_11"/>
   </g>
   <g id="line2d_25">
    <path clip-path="url(#p6816cd1777)" d="M 48.70625 57.117895 
L 53.359079 55.141035 
L 58.011909 52.887319 
L 62.664738 50.382135 
L 68.86851 46.733003 
L 85.928885 36.34054 
L 90.581714 33.862826 
L 95.234543 31.698905 
L 98.336429 30.45495 
L 101.438316 29.377032 
L 104.540202 28.463098 
L 109.193031 27.378237 
L 113.845861 26.58569 
L 118.49869 26.010341 
L 126.253405 25.314882 
L 144.864723 23.729238 
L 152.619438 23.148515 
L 157.272268 22.963702 
L 161.925097 22.971392 
L 166.577926 23.212516 
L 171.230756 23.703737 
L 175.883585 24.431751 
L 182.087357 25.689629 
L 196.045845 28.766294 
L 200.698675 29.542638 
L 205.351504 30.080861 
L 210.004333 30.361136 
L 214.657163 30.404297 
L 220.860935 30.201474 
L 230.166594 29.824212 
L 234.819423 29.858309 
L 237.921309 30.040371 
L 241.023195 30.381794 
L 244.125082 30.903046 
L 247.226968 31.617226 
L 250.328854 32.529331 
L 253.43074 33.635932 
L 256.532627 34.925323 
L 261.185456 37.157919 
L 265.838285 39.664908 
L 284.449602 50.135649 
L 289.102432 52.357004 
L 293.755261 54.297953 
L 298.40809 55.946941 
L 303.06092 57.315539 
L 307.713749 58.431362 
L 312.366578 59.330747 
L 318.570351 60.260094 
L 324.774123 60.958822 
L 332.528839 61.614073 
L 343.385441 62.300161 
L 357.343929 63.031535 
L 357.343929 63.031535 
" style="fill:none;stroke:#1f77b4;stroke-linecap:square;stroke-width:1.5;"/>
   </g>
   <g id="patch_14">
    <path d="M 48.70625 65 
L 357.343929 65 
" style="fill:none;stroke:#000000;stroke-linecap:square;stroke-linejoin:miter;stroke-width:0.8;"/>
   </g>
  </g>
  <g id="axes_3">
   <g id="patch_15">
    <path d="M 367.986607 390.2 
L 421.2 390.2 
L 421.2 75.84 
L 367.986607 75.84 
z
" style="fill:#ffffff;"/>
   </g>
   <g id="patch_16">
    <path clip-path="url(#p1d49baf38f)" d="M 367.986607 375.910909 
L 370.802131 375.910909 
L 370.802131 360.342058 
L 367.986607 360.342058 
z
" style="fill:#1f77b4;fill-opacity:0.5;stroke:#000000;stroke-linejoin:miter;"/>
   </g>
   <g id="patch_17">
    <path clip-path="url(#p1d49baf38f)" d="M 367.986607 360.342058 
L 367.986607 360.342058 
L 367.986607 344.773207 
L 367.986607 344.773207 
z
" style="fill:#1f77b4;fill-opacity:0.5;stroke:#000000;stroke-linejoin:miter;"/>
   </g>
   <g id="patch_18">
    <path clip-path="url(#p1d49baf38f)" d="M 367.986607 344.773207 
L 367.986607 344.773207 
L 367.986607 329.204357 
L 367.986607 329.204357 
z
" style="fill:#1f77b4;fill-opacity:0.5;stroke:#000000;stroke-linejoin:miter;"/>
   </g>
   <g id="patch_19">
    <path clip-path="url(#p1d49baf38f)" d="M 367.986607 329.204357 
L 367.986607 329.204357 
L 367.986607 313.635506 
L 367.986607 313.635506 
z
" style="fill:#1f77b4;fill-opacity:0.5;stroke:#000000;stroke-linejoin:miter;"/>
   </g>
   <g id="patch_20">
    <path clip-path="url(#p1d49baf38f)" d="M 367.986607 313.635506 
L 370.034261 313.635506 
L 370.034261 298.066655 
L 367.986607 298.066655 
z
" style="fill:#1f77b4;fill-opacity:0.5;stroke:#000000;stroke-linejoin:miter;"/>
   </g>
   <g id="patch_21">
    <path clip-path="url(#p1d49baf38f)" d="M 367.986607 298.066655 
L 368.242564 298.066655 
L 368.242564 282.497804 
L 367.986607 282.497804 
z
" style="fill:#1f77b4;fill-opacity:0.5;stroke:#000000;stroke-linejoin:miter;"/>
   </g>
   <g id="patch_22">
    <path clip-path="url(#p1d49baf38f)" d="M 367.986607 282.497804 
L 369.010434 282.497804 
L 369.010434 266.928953 
L 367.986607 266.928953 
z
" style="fill:#1f77b4;fill-opacity:0.5;stroke:#000000;stroke-linejoin:miter;"/>
   </g>
   <g id="patch_23">
    <path clip-path="url(#p1d49baf38f)" d="M 367.986607 266.928953 
L 368.49852 266.928953 
L 368.49852 251.360102 
L 367.986607 251.360102 
z
" style="fill:#1f77b4;fill-opacity:0.5;stroke:#000000;stroke-linejoin:miter;"/>
   </g>
   <g id="patch_24">
    <path clip-path="url(#p1d49baf38f)" d="M 367.986607 251.360102 
L 367.986607 251.360102 
L 367.986607 235.791252 
L 367.986607 235.791252 
z
" style="fill:#1f77b4;fill-opacity:0.5;stroke:#000000;stroke-linejoin:miter;"/>
   </g>
   <g id="patch_25">
    <path clip-path="url(#p1d49baf38f)" d="M 367.986607 235.791252 
L 374.897437 235.791252 
L 374.897437 220.222401 
L 367.986607 220.222401 
z
" style="fill:#1f77b4;fill-opacity:0.5;stroke:#000000;stroke-linejoin:miter;"/>
   </g>
   <g id="patch_26">
    <path clip-path="url(#p1d49baf38f)" d="M 367.986607 220.222401 
L 372.081914 220.222401 
L 372.081914 204.65355 
L 367.986607 204.65355 
z
" style="fill:#1f77b4;fill-opacity:0.5;stroke:#000000;stroke-linejoin:miter;"/>
   </g>
   <g id="patch_27">
    <path clip-path="url(#p1d49baf38f)" d="M 367.986607 204.65355 
L 375.153394 204.65355 
L 375.153394 189.084699 
L 367.986607 189.084699 
z
" style="fill:#1f77b4;fill-opacity:0.5;stroke:#000000;stroke-linejoin:miter;"/>
   </g>
   <g id="patch_28">
    <path clip-path="url(#p1d49baf38f)" d="M 367.986607 189.084699 
L 376.177221 189.084699 
L 376.177221 173.515848 
L 367.986607 173.515848 
z
" style="fill:#1f77b4;fill-opacity:0.5;stroke:#000000;stroke-linejoin:miter;"/>
   </g>
   <g id="patch_29">
    <path clip-path="url(#p1d49baf38f)" d="M 367.986607 173.515848 
L 398.189495 173.515848 
L 398.189495 157.946997 
L 367.986607 157.946997 
z
" style="fill:#1f77b4;fill-opacity:0.5;stroke:#000000;stroke-linejoin:miter;"/>
   </g>
   <g id="patch_30">
    <path clip-path="url(#p1d49baf38f)" d="M 367.986607 157.946997 
L 385.391661 157.946997 
L 385.391661 142.378146 
L 367.986607 142.378146 
z
" style="fill:#1f77b4;fill-opacity:0.5;stroke:#000000;stroke-linejoin:miter;"/>
   </g>
   <g id="patch_31">
    <path clip-path="url(#p1d49baf38f)" d="M 367.986607 142.378146 
L 387.951228 142.378146 
L 387.951228 126.809296 
L 367.986607 126.809296 
z
" style="fill:#1f77b4;fill-opacity:0.5;stroke:#000000;stroke-linejoin:miter;"/>
   </g>
   <g id="patch_32">
    <path clip-path="url(#p1d49baf38f)" d="M 367.986607 126.809296 
L 380.784441 126.809296 
L 380.784441 111.240445 
L 367.986607 111.240445 
z
" style="fill:#1f77b4;fill-opacity:0.5;stroke:#000000;stroke-linejoin:miter;"/>
   </g>
   <g id="patch_33">
    <path clip-path="url(#p1d49baf38f)" d="M 367.986607 111.240445 
L 418.666029 111.240445 
L 418.666029 95.671594 
L 367.986607 95.671594 
z
" style="fill:#1f77b4;fill-opacity:0.5;stroke:#000000;stroke-linejoin:miter;"/>
   </g>
   <g id="matplotlib.axis_5">
    <g id="xtick_15"/>
    <g id="xtick_16"/>
   </g>
   <g id="matplotlib.axis_6">
    <g id="ytick_12">
     <g id="line2d_26">
      <g>
       <use style="stroke:#000000;stroke-width:0.8;" x="367.986607" xlink:href="#mcc17041353" y="375.910909"/>
      </g>
     </g>
    </g>
    <g id="ytick_13">
     <g id="line2d_27">
      <g>
       <use style="stroke:#000000;stroke-width:0.8;" x="367.986607" xlink:href="#mcc17041353" y="340.880995"/>
      </g>
     </g>
    </g>
    <g id="ytick_14">
     <g id="line2d_28">
      <g>
       <use style="stroke:#000000;stroke-width:0.8;" x="367.986607" xlink:href="#mcc17041353" y="305.85108"/>
      </g>
     </g>
    </g>
    <g id="ytick_15">
     <g id="line2d_29">
      <g>
       <use style="stroke:#000000;stroke-width:0.8;" x="367.986607" xlink:href="#mcc17041353" y="270.821166"/>
      </g>
     </g>
    </g>
    <g id="ytick_16">
     <g id="line2d_30">
      <g>
       <use style="stroke:#000000;stroke-width:0.8;" x="367.986607" xlink:href="#mcc17041353" y="235.791252"/>
      </g>
     </g>
    </g>
    <g id="ytick_17">
     <g id="line2d_31">
      <g>
       <use style="stroke:#000000;stroke-width:0.8;" x="367.986607" xlink:href="#mcc17041353" y="200.761337"/>
      </g>
     </g>
    </g>
    <g id="ytick_18">
     <g id="line2d_32">
      <g>
       <use style="stroke:#000000;stroke-width:0.8;" x="367.986607" xlink:href="#mcc17041353" y="165.731423"/>
      </g>
     </g>
    </g>
    <g id="ytick_19">
     <g id="line2d_33">
      <g>
       <use style="stroke:#000000;stroke-width:0.8;" x="367.986607" xlink:href="#mcc17041353" y="130.701508"/>
      </g>
     </g>
    </g>
    <g id="ytick_20">
     <g id="line2d_34">
      <g>
       <use style="stroke:#000000;stroke-width:0.8;" x="367.986607" xlink:href="#mcc17041353" y="95.671594"/>
      </g>
     </g>
    </g>
   </g>
   <g id="line2d_35">
    <path clip-path="url(#p1d49baf38f)" d="M 369.170912 375.910909 
L 369.043724 368.86972 
L 368.474868 356.19558 
L 368.166098 346.337916 
L 368.111672 337.888489 
L 368.273546 328.030825 
L 368.940074 301.274308 
L 368.881535 268.884839 
L 369.189983 260.435412 
L 369.707038 253.394224 
L 370.732673 243.536559 
L 371.392202 236.49537 
L 371.830482 229.454182 
L 372.455352 218.188279 
L 373.001742 212.555328 
L 373.785832 206.922377 
L 374.812642 201.289426 
L 376.108669 195.656475 
L 377.297266 191.431762 
L 378.700044 187.207049 
L 380.307989 182.982335 
L 385.417389 170.308195 
L 386.327416 167.49172 
L 387.071265 164.675244 
L 387.634711 161.858769 
L 388.020919 159.042293 
L 388.309867 154.81758 
L 388.336214 150.592867 
L 388.122575 144.959916 
L 387.524863 136.510489 
L 386.913771 128.061063 
L 386.85667 123.836349 
L 387.009892 121.019874 
L 387.352132 118.203398 
L 387.885687 115.386923 
L 388.958683 111.162209 
L 390.410157 105.529258 
L 390.850579 102.712783 
L 390.919696 99.896307 
L 390.781015 98.488069 
L 390.514459 97.079832 
L 390.115226 95.671594 
L 390.115226 95.671594 
" style="fill:none;stroke:#1f77b4;stroke-linecap:square;stroke-width:1.5;"/>
   </g>
   <g id="patch_34">
    <path d="M 367.986607 390.2 
L 367.986607 75.84 
" style="fill:none;stroke:#000000;stroke-linecap:square;stroke-linejoin:miter;stroke-width:0.8;"/>
   </g>
  </g>
 </g>
 <defs>
  <clipPath id="p6c18e29543">
   <rect height="314.36" width="308.637679" x="48.70625" y="75.84"/>
  </clipPath>
  <clipPath id="p6816cd1777">
   <rect height="54.2" width="308.637679" x="48.70625" y="10.8"/>
  </clipPath>
  <clipPath id="p1d49baf38f">
   <rect height="314.36" width="53.213393" x="367.986607" y="75.84"/>
  </clipPath>
 </defs>
</svg>
